<?xml version="1.0" standalone="no"?>
<!DOCTYPE svg PUBLIC "-//W3C//DTD SVG 20010904//EN"
 "http://www.w3.org/TR/2001/REC-SVG-20010904/DTD/svg10.dtd">
<svg version="1.0" xmlns="http://www.w3.org/2000/svg"
 width="700.000000pt" height="700.000000pt" viewBox="0 0 700.000000 700.000000"
 preserveAspectRatio="xMidYMid meet">
<metadata>
Created by potrace 1.14, written by Peter Selinger 2001-2017
</metadata>
<g transform="translate(0.000000,700.000000) scale(0.100000,-0.100000)"
fill="#000000" stroke="none">
<path d="M3378 6063 c-85 -113 -181 -270 -257 -420 l-59 -119 -77 -13 c-150
-25 -352 -89 -514 -162 -35 -16 -65 -29 -66 -29 -2 0 -17 38 -34 85 -47 131
-77 261 -96 425 -8 65 -11 70 -35 70 -36 0 -195 -211 -268 -355 -44 -88 -90
-228 -105 -318 l-13 -78 -26 20 c-44 35 -107 47 -173 32 -47 -11 -66 -22 -114
-70 -62 -60 -77 -94 -102 -223 -8 -44 -17 -62 -37 -76 -40 -28 -126 -54 -155
-47 -19 5 -28 2 -36 -14 -6 -11 -39 -33 -74 -50 -162 -77 -213 -177 -166 -323
38 -120 148 -215 270 -233 43 -6 47 -10 59 -45 12 -35 10 -48 -23 -152 -38
-119 -62 -209 -72 -268 -3 -19 -8 -42 -10 -50 -10 -32 -35 -220 -41 -305 -7
-105 -7 -360 0 -425 3 -25 8 -67 11 -95 32 -282 150 -615 305 -866 l47 -76
-28 -17 c-34 -20 -60 -61 -92 -146 -65 -173 -5 -300 167 -356 67 -22 155 -67
184 -93 17 -17 22 -34 24 -74 0 -29 2 -56 3 -62 0 -5 5 -32 9 -60 33 -207 190
-277 388 -173 88 47 138 127 138 223 l0 43 88 -43 c184 -91 437 -175 612 -205
36 -6 76 -13 90 -16 145 -26 537 -26 690 0 204 35 434 102 588 172 65 30 73
31 78 16 31 -96 88 -156 186 -193 193 -72 325 30 344 263 3 40 7 83 10 95 6
29 84 74 187 109 101 34 165 77 195 134 21 39 23 55 19 120 -3 50 -13 97 -31
142 l-28 67 60 88 c73 107 167 286 215 408 69 173 127 415 144 591 14 150 7
498 -12 594 -2 13 -7 42 -10 65 -11 74 -45 229 -69 309 l-23 79 47 90 c37 71
52 91 71 94 13 2 52 17 86 33 69 34 129 96 162 164 51 110 51 195 0 266 -29
40 -139 120 -166 120 -7 0 -13 11 -13 24 0 57 -36 76 -68 36 -17 -20 -17 -20
-87 6 -38 15 -78 34 -88 43 -10 10 -23 50 -32 96 -20 101 -45 154 -97 200 -86
79 -168 94 -260 47 l-54 -27 -12 75 c-34 211 -152 439 -324 623 -78 85 -92 81
-107 -33 -17 -128 -22 -153 -42 -235 -24 -96 -53 -182 -86 -251 l-24 -52 -112
53 c-130 62 -310 124 -452 156 l-101 22 -59 116 c-102 198 -322 510 -366 519
-9 1 -42 -33 -81 -85z m50 -563 l-1 -530 -36 -1 c-81 -2 -220 -32 -325 -70
-44 -16 -82 -29 -84 -29 -7 0 8 153 23 237 20 118 59 257 90 328 7 17 21 50
31 75 29 74 114 240 162 315 57 91 135 205 139 205 1 0 2 -238 1 -530z m142
430 c147 -200 285 -472 344 -678 39 -135 47 -180 60 -329 l5 -51 -36 15 c-114
47 -261 79 -398 85 -27 2 -52 6 -55 9 -4 6 -5 886 -1 1024 1 34 0 35 81 -75z
m1287 -227 c211 -286 278 -590 192 -869 -49 -158 -148 -313 -298 -465 -73 -73
-106 -99 -136 -108 -65 -18 -84 -15 -91 17 -11 44 -64 152 -110 224 l-43 67
57 42 c261 197 400 494 400 859 0 93 -5 148 -23 268 -3 17 -3 32 -1 32 2 0 26
-30 53 -67z m-2681 30 c-8 -31 -18 -151 -20 -249 -6 -263 62 -495 199 -684 49
-68 145 -165 207 -210 l36 -26 -30 -45 c-38 -56 -90 -159 -114 -227 -15 -45
-22 -52 -39 -48 -11 3 -30 6 -42 6 -23 0 -150 119 -225 210 -90 112 -139 199
-186 331 -35 100 -46 162 -46 279 -1 210 56 381 199 602 48 74 72 98 61 61z
m2590 -233 c6 -262 -40 -435 -166 -624 -50 -73 -193 -218 -244 -246 -25 -13
-28 -11 -77 37 -28 28 -74 68 -103 88 l-51 38 71 37 c268 138 467 440 535 810
12 64 14 68 22 43 5 -15 11 -98 13 -183z m-2500 40 c12 -60 68 -210 109 -292
103 -206 261 -372 426 -444 l38 -17 -47 -35 c-26 -19 -72 -59 -102 -89 l-56
-53 -64 52 c-244 195 -365 483 -354 843 2 66 6 129 8 140 3 11 5 27 6 35 1 13
19 -55 36 -140z m769 -97 c-4 -10 -23 -67 -41 -127 -46 -152 -70 -299 -73
-458 -1 -34 -15 -35 -82 -7 -38 17 -48 26 -43 38 39 95 24 175 -46 239 -56 53
-135 66 -210 36 -23 -9 -42 -15 -44 -13 -2 2 -18 29 -35 60 l-31 56 87 38
c167 72 404 143 512 154 9 1 11 -5 6 -16z m993 -23 c116 -29 270 -84 391 -141
102 -48 103 -49 89 -71 -8 -13 -21 -33 -28 -44 -13 -21 -14 -21 -54 -3 -98 44
-211 4 -262 -93 -20 -38 -24 -107 -9 -151 l13 -39 -34 -14 c-56 -24 -94 -29
-95 -13 -16 218 -22 255 -60 389 -16 58 -39 129 -50 158 -18 50 -18 53 -2 48
10 -3 55 -14 101 -26z m-2250 -290 c60 -37 70 -52 77 -115 7 -72 13 -106 27
-165 9 -39 7 -55 -18 -125 -15 -44 -27 -88 -26 -98 1 -24 63 -104 148 -193 38
-39 80 -83 93 -98 l24 -26 -54 16 c-322 92 -564 210 -699 343 l-55 53 52 18
c106 37 143 79 156 177 14 97 38 146 92 187 66 51 128 59 183 26z m3612 -14
c57 -38 88 -93 106 -189 15 -81 32 -120 63 -144 13 -10 70 -34 139 -58 28 -10
-123 -127 -252 -195 -104 -55 -272 -122 -414 -165 -63 -19 -119 -35 -123 -35
-5 0 39 48 99 108 121 120 162 170 162 198 0 11 -12 55 -26 99 -32 100 -33
105 -23 132 7 19 17 90 24 164 3 39 32 75 78 99 53 27 113 22 167 -14z m-2684
-27 c49 -45 69 -125 40 -164 -13 -18 -16 -17 -69 26 -30 25 -74 67 -97 94 -40
46 -41 49 -24 63 30 22 118 11 150 -19z m1701 18 c21 -12 21 -13 -20 -58 -58
-65 -158 -142 -168 -132 -19 19 -20 88 -2 123 35 68 129 101 190 67z m-775
-202 c93 -9 241 -51 331 -93 217 -101 363 -246 461 -453 69 -145 90 -245 88
-414 -2 -239 -85 -450 -242 -618 -93 -100 -172 -158 -295 -218 -156 -75 -267
-101 -460 -105 -266 -5 -449 46 -651 182 -181 122 -304 291 -371 512 -24 79
-26 103 -27 257 0 145 3 182 22 250 23 82 117 285 132 285 5 0 11 8 14 18 9
25 112 132 176 184 31 24 85 60 121 80 209 117 436 160 701 133z m1468 -220
c11 -38 10 -48 -3 -67 -26 -39 -270 -279 -322 -318 -11 -8 17 25 62 73 88 96
168 208 211 299 15 32 30 58 33 58 4 0 12 -20 19 -45z m-3046 -199 c24 -34 74
-95 112 -136 95 -103 53 -68 -77 65 -130 134 -189 202 -189 219 0 7 5 28 11
45 l12 33 44 -83 c24 -46 63 -110 87 -143z m-853 187 c0 -5 2 -42 4 -83 4
-112 9 -144 52 -343 5 -27 4 -28 -23 -21 -157 38 -266 213 -206 331 28 54 170
149 173 116z m4691 -36 c75 -52 93 -81 92 -152 -1 -104 -75 -214 -172 -257
-24 -11 -46 -18 -48 -16 -2 3 2 27 10 54 31 108 54 253 55 352 1 28 4 52 9 52
4 -1 28 -15 54 -33z m-126 -89 c-41 -508 -338 -887 -826 -1053 -95 -32 -239
-69 -245 -63 -2 2 14 39 36 83 52 106 84 208 118 379 l28 141 34 12 c19 7 41
12 50 12 31 2 226 71 300 107 191 94 370 247 460 392 24 40 46 72 48 72 2 0 0
-37 -3 -82z m-93 45 c-149 -240 -481 -441 -823 -498 -19 -3 -60 -10 -90 -15
-93 -15 -202 -21 -196 -11 4 5 1 33 -5 61 -6 28 -9 53 -7 55 2 2 51 13 108 25
428 87 826 239 990 379 43 37 45 37 23 4z m-4316 -125 c99 -130 226 -232 391
-315 106 -53 112 -58 113 -87 0 -17 2 -38 3 -46 2 -8 6 -41 10 -72 13 -119 87
-306 161 -410 20 -27 35 -52 32 -54 -6 -7 -125 43 -204 86 -302 163 -497 437
-572 802 -11 51 -22 127 -25 168 l-6 75 27 -45 c14 -25 46 -71 70 -102z m88
51 c117 -77 263 -145 455 -209 119 -40 383 -108 453 -116 28 -4 56 -9 60 -11
5 -3 5 -24 1 -47 -4 -22 -8 -50 -9 -61 -2 -18 -8 -20 -66 -17 -99 4 -281 40
-395 78 -192 63 -360 167 -478 295 -59 64 -128 157 -105 143 8 -5 46 -30 84
-55z m775 -509 c47 -6 104 -13 128 -15 23 -1 44 -4 46 -6 2 -2 6 -47 9 -99 11
-174 68 -350 153 -475 21 -29 17 -34 -18 -30 -18 2 -54 6 -80 9 -70 9 -115 16
-192 32 -57 12 -75 21 -104 51 -112 120 -193 281 -227 455 -2 9 -7 46 -10 81
l-7 64 109 -27 c59 -16 146 -34 193 -40z m2590 6 c0 -34 -43 -235 -67 -310
-28 -90 -92 -227 -126 -269 -20 -24 -31 -28 -112 -35 -49 -5 -91 -8 -93 -7 -2
2 17 40 42 86 76 141 116 295 117 450 1 38 4 69 7 70 81 6 145 13 177 19 22 4
43 8 48 9 4 1 7 -6 7 -13z m-3353 -175 c58 -82 181 -197 277 -262 48 -32 92
-59 97 -61 5 -2 2 -38 -7 -88 -27 -146 -27 -444 0 -566 7 -30 6 -31 -41 -40
-69 -13 -65 -36 17 -92 61 -41 67 -49 96 -120 67 -169 167 -329 283 -452 39
-41 70 -78 71 -81 0 -10 -120 -115 -203 -177 -68 -52 -72 -53 -120 -48 -27 4
-68 10 -90 15 -74 16 -121 23 -184 26 -34 2 -67 6 -72 10 -16 9 -70 95 -129
205 -129 239 -213 529 -239 825 -11 127 -5 426 11 525 2 14 7 45 11 70 13 87
17 106 36 195 20 88 52 205 71 254 9 25 10 25 43 -29 18 -30 50 -79 72 -109z
m4172 -48 c84 -330 101 -716 46 -1028 -50 -282 -157 -555 -310 -792 l-67 -103
-31 17 c-51 26 -148 27 -299 4 -76 -11 -144 -21 -152 -21 -16 0 -109 72 -187
145 l-51 47 76 77 c121 122 208 245 281 392 37 76 38 77 114 115 82 40 222
127 240 148 23 27 2 44 -62 51 -62 7 -165 29 -174 38 -2 3 1 33 7 66 19 104
14 375 -9 481 l-7 35 91 46 c175 88 329 209 421 329 21 27 41 47 45 42 4 -4
17 -44 28 -89z m-3647 -344 c148 -55 280 -90 397 -104 30 -4 63 -9 75 -11 12
-2 42 -5 68 -5 27 -1 48 -7 48 -12 0 -18 -213 -223 -295 -283 -95 -70 -218
-136 -315 -169 -76 -26 -71 -28 -86 40 -13 65 -13 370 1 465 8 52 14 98 15
103 0 10 0 10 92 -24z m3019 -84 c13 -93 15 -270 5 -377 -6 -60 -11 -78 -23
-78 -29 0 -210 102 -299 168 -116 87 -278 244 -261 253 6 3 48 9 92 13 98 8
301 49 398 80 40 12 73 22 74 21 2 -1 8 -37 14 -80z m-470 -238 c144 -129 336
-247 477 -292 97 -32 78 -38 -128 -38 -287 -1 -553 92 -741 258 l-48 44 62 44
c34 25 91 73 127 108 l65 64 55 -60 c30 -33 89 -91 131 -128z m-1844 127 c24
-25 80 -71 123 -103 l79 -59 -47 -42 c-134 -121 -329 -216 -502 -245 -101 -17
-223 -22 -365 -16 l-40 2 52 19 c128 46 271 129 393 230 73 61 188 175 227
226 14 19 28 34 31 34 2 0 25 -20 49 -46z m433 -258 c47 -15 125 -33 173 -40
48 -8 90 -16 93 -18 2 -3 -26 -34 -63 -69 -179 -169 -338 -259 -540 -304 -92
-21 -127 -24 -238 -21 -71 2 -141 6 -155 10 -14 3 -50 11 -80 17 -30 6 -93 25
-140 41 -86 30 -250 108 -250 118 0 3 28 3 63 0 161 -16 401 10 520 56 10 3
25 -21 52 -83 45 -102 55 -116 79 -107 23 9 18 37 -25 137 -28 66 -31 80 -19
87 28 18 35 10 60 -63 21 -57 31 -73 48 -75 33 -5 35 16 7 97 -14 41 -25 76
-25 77 0 2 31 23 68 47 38 25 98 72 133 105 l64 60 45 -23 c25 -12 83 -35 130
-49z m967 26 l53 -47 -72 -128 c-62 -113 -69 -130 -56 -143 24 -24 40 -8 93
87 84 154 83 153 103 136 9 -8 36 -24 60 -36 24 -12 42 -28 39 -34 -54 -153
-53 -148 -33 -163 27 -19 39 -6 66 75 l24 69 66 -24 c181 -65 367 -89 580 -73
52 4 96 6 98 5 4 -5 -141 -73 -222 -106 -151 -60 -265 -82 -436 -86 -128 -2
-172 1 -250 18 -162 35 -306 101 -445 203 -86 63 -188 156 -180 163 3 3 22 7
43 9 108 8 293 60 372 103 19 11 37 19 40 19 3 0 29 -21 57 -47z m-547 -138
c114 -117 249 -216 381 -279 65 -31 97 -60 377 -343 302 -306 410 -405 473
-438 29 -14 43 -15 113 -5 45 6 92 14 106 17 14 3 68 7 120 10 119 7 154 -8
188 -78 33 -70 50 -155 40 -203 -14 -68 -58 -105 -168 -140 -125 -40 -209 -93
-228 -142 -6 -16 -13 -62 -15 -103 -11 -165 -80 -258 -182 -245 -101 13 -179
58 -213 125 -22 42 -23 53 -18 155 3 61 10 128 14 151 14 68 6 130 -22 178
-85 146 -353 421 -731 752 -199 175 -331 284 -344 284 -11 0 -184 -131 -211
-160 -3 -3 -43 -37 -90 -75 -111 -91 -352 -296 -415 -355 -328 -305 -445 -435
-475 -526 -11 -32 -8 -138 6 -208 2 -12 4 -53 5 -91 1 -79 -17 -134 -58 -177
-63 -66 -212 -95 -270 -52 -58 43 -93 146 -93 276 0 91 -38 125 -222 197 -120
48 -162 84 -174 148 -15 77 41 237 92 264 36 19 187 16 282 -5 140 -31 167
-31 217 -1 98 57 263 205 667 598 78 75 98 89 147 103 85 23 108 32 209 82
115 57 231 144 342 256 47 47 87 86 90 86 3 0 30 -25 60 -56z m-1320 -350
c136 -38 225 -52 342 -50 59 0 108 -2 108 -5 0 -3 -55 -59 -122 -124 -68 -65
-151 -145 -184 -177 l-61 -60 -66 68 c-91 92 -172 208 -234 333 -29 57 -53
108 -53 112 0 4 42 -11 92 -33 51 -22 131 -50 178 -64z m2639 -21 c-51 -93
-98 -164 -147 -223 -66 -80 -165 -180 -177 -180 -11 0 -397 392 -403 408 -1 5
36 0 84 -9 115 -24 290 -23 419 1 105 20 203 45 213 54 3 3 14 6 24 6 17 0 15
-6 -13 -57z m-1394 -29 c17 -14 52 -44 80 -67 135 -114 374 -327 485 -433 41
-40 88 -84 103 -99 l29 -26 -64 -28 c-93 -42 -239 -87 -368 -112 -161 -32
-416 -33 -600 -3 -87 15 -235 58 -344 101 l-119 47 64 59 c153 142 683 587
699 587 3 0 19 -12 35 -26z m-747 -704 c86 -37 251 -92 317 -104 17 -4 41 -9
55 -11 14 -3 41 -8 60 -10 19 -3 64 -9 100 -15 62 -8 353 -6 395 3 11 3 40 8
65 12 128 20 308 74 424 127 l69 32 89 -94 c112 -119 180 -216 182 -261 0 -19
-5 -91 -13 -161 l-14 -126 -76 -36 c-206 -94 -504 -171 -738 -192 -132 -11
-371 -3 -508 17 -109 16 -118 18 -153 28 -18 5 -35 10 -37 10 -34 -1 -216 54
-340 103 -81 32 -270 121 -283 133 -7 7 -15 74 -16 145 -1 72 0 77 41 136 40
59 268 304 283 304 3 0 48 -18 98 -40z"/>
<path d="M3171 5264 c-45 -42 -81 -84 -81 -94 0 -34 31 -32 74 7 136 122 143
133 107 153 -17 8 -31 -1 -100 -66z"/>
<path d="M3202 5125 c-50 -54 -56 -77 -26 -89 21 -8 116 93 112 119 -5 37 -34
27 -86 -30z"/>
<path d="M2860 4663 c-30 -8 -66 -21 -79 -30 -136 -89 -216 -260 -170 -363 42
-94 166 -92 285 5 72 59 145 194 139 255 -1 8 -3 27 -3 42 -3 36 -43 82 -84
95 -26 7 -48 6 -88 -4z m87 -61 c20 -12 34 -64 27 -96 -25 -118 -156 -246
-251 -246 -101 0 -82 164 33 275 58 57 154 91 191 67z"/>
<path d="M2792 4540 c-112 -81 -138 -240 -39 -240 44 0 119 49 153 99 34 53
43 124 19 151 -28 30 -83 26 -133 -10z"/>
<path d="M4023 4595 c-103 -45 -80 -225 46 -354 191 -196 408 -83 296 153 -73
155 -233 249 -342 201z m148 -76 c158 -85 229 -320 96 -319 -107 1 -245 149
-250 268 -3 85 55 104 154 51z"/>
<path d="M4070 4490 c-65 -65 54 -250 160 -250 48 0 70 24 70 76 0 115 -165
239 -230 174z"/>
<path d="M3385 4529 c-137 -13 -257 -70 -355 -168 -104 -104 -148 -215 -148
-371 0 -146 49 -269 149 -368 292 -294 827 -193 968 182 37 100 43 223 16 326
-68 262 -331 429 -630 399z m157 -67 c27 -27 -38 -73 -96 -67 -67 6 -107 70
-48 77 44 5 135 -1 144 -10z m-227 -42 c7 -32 65 -80 97 -80 17 0 18 -16 18
-214 l0 -213 -52 2 c-203 9 -353 41 -413 89 l-29 23 11 61 c26 138 125 265
255 328 90 42 104 43 113 4z m391 -5 c91 -41 180 -127 219 -209 34 -71 53
-161 39 -184 -23 -39 -154 -83 -291 -97 -99 -11 -183 -13 -184 -4 0 5 -1 90
-1 189 0 99 1 190 1 203 1 17 10 26 36 36 38 14 75 54 75 82 0 27 21 24 106
-16z m-714 -494 c190 -81 654 -89 893 -14 28 9 56 20 63 26 23 18 25 -2 8 -66
-56 -208 -235 -342 -471 -354 -269 -14 -495 149 -539 390 -4 20 -5 37 -2 37 2
0 24 -8 48 -19z"/>
<path d="M5270 4018 c-7 -24 -23 -64 -36 -90 -27 -53 -30 -83 -11 -91 29 -11
52 21 92 131 26 70 24 92 -9 92 -18 0 -26 -9 -36 -42z"/>
<path d="M5074 3886 c-27 -55 -27 -86 0 -86 20 0 54 45 65 88 12 41 7 52 -19
52 -13 0 -28 -17 -46 -54z"/>
<path d="M1452 3237 c-75 -28 -126 -103 -126 -187 0 -153 151 -247 289 -180
47 23 104 96 106 134 0 12 2 29 4 39 6 32 -24 113 -52 142 -58 58 -146 79
-221 52z m131 -58 c91 -47 111 -164 40 -231 -73 -68 -181 -49 -224 40 -34 69
-12 142 54 182 36 22 97 26 130 9z"/>
<path d="M1726 2325 c-74 -26 -125 -94 -131 -172 -8 -122 81 -218 201 -216
107 2 187 76 198 183 6 59 -13 109 -59 156 -58 61 -130 77 -209 49z m104 -51
c18 -4 47 -22 65 -39 68 -69 48 -182 -39 -224 -52 -26 -69 -26 -124 -1 -33 15
-47 29 -62 62 -23 52 -25 75 -6 119 29 70 87 98 166 83z"/>
<path d="M5309 3294 c-88 -27 -149 -124 -135 -217 23 -150 193 -222 318 -135
47 32 81 101 80 163 -1 138 -129 231 -263 189z m140 -72 c46 -34 69 -77 65
-122 -12 -145 -190 -189 -264 -67 -59 95 21 221 133 212 22 -2 52 -12 66 -23z"/>
<path d="M4995 2335 c-20 -8 -51 -26 -67 -42 -149 -140 -24 -386 174 -343 132
28 198 167 136 288 -44 85 -152 128 -243 97z m144 -72 c45 -34 64 -69 64 -118
0 -80 -67 -144 -147 -140 -147 6 -188 201 -56 268 42 21 103 16 139 -10z"/>
<path d="M2519 2005 c-87 -64 -379 -353 -379 -375 0 -5 10 -14 21 -21 19 -10
30 -2 110 84 49 52 141 141 204 197 63 56 115 105 115 110 0 5 -8 14 -19 19
-14 8 -26 5 -52 -14z"/>
<path d="M2029 1561 c-44 -43 -49 -66 -18 -76 16 -5 28 2 54 32 37 42 44 68
19 77 -11 4 -29 -7 -55 -33z"/>
<path d="M2489 1647 c-24 -13 -57 -43 -74 -66 -26 -37 -30 -51 -30 -111 0 -60
4 -74 30 -112 38 -54 102 -88 166 -88 60 0 87 10 132 49 46 41 69 92 69 151
-2 150 -161 246 -293 177z m169 -57 c65 -40 85 -140 40 -203 -79 -111 -258
-53 -258 83 0 50 45 116 90 133 34 12 96 6 128 -13z"/>
<path d="M4119 1647 c-24 -13 -57 -43 -74 -66 -26 -37 -30 -51 -30 -111 0 -60
4 -73 30 -112 75 -106 213 -119 307 -30 43 40 61 86 60 146 -3 148 -162 242
-293 173z m168 -57 c119 -72 62 -264 -78 -262 -143 2 -191 202 -64 266 42 21
104 20 142 -4z"/>
<path d="M3340 1484 c-203 -86 -144 -389 75 -387 83 1 166 58 189 130 31 98
-10 205 -98 250 -42 22 -123 25 -166 7z m136 -60 c43 -21 72 -61 78 -109 19
-152 -182 -222 -259 -90 -29 48 -31 78 -10 128 31 74 117 106 191 71z"/>
</g>
</svg>
