<svg xmlns="http://www.w3.org/2000/svg" xml:space="preserve" viewBox="0 0 48 48">
    <path fill="none" stroke="inherit" stroke-linecap="round" stroke-linejoin="round" stroke-miterlimit="10" stroke-width=".4" d="M31.16 20.855c0 3.97-3.21 6.75-7.17 6.79h-.08c-4.01 0-7.26-2.79-7.26-6.79 0-.14 0-.28.01-.42.03-.45.09-.87.2-1.27.44-1.76 1.57-3.17 3.1-4.05 1.14-.66 2.5-1.02 3.95-1.02.68 0 1.34.08 1.96.23 2.06.5 3.75 1.78 4.62 3.59 0 .01.01.01.01.01.43.86.66 1.85.66 2.93z"/>
    <path fill="none" stroke="inherit" stroke-linecap="round" stroke-linejoin="round" stroke-miterlimit="10" stroke-width=".4" d="M19.96 15.115s-2.18-.38-3.56-3.31c-.49-1.02-.88-2.34-1.04-4.07l-.01.01c-.2.19-2.43 2.45-2.44 5.47 0 .34.03.68.09 1.02.04.27.1.54.19.81.36 1.17 1.12 2.41 2.47 3.66.11.1.23.2.35.31"/>
    <path fill="none" stroke="inherit" stroke-linecap="round" stroke-linejoin="round" stroke-miterlimit="10" stroke-width=".4" d="M16.86 19.165s-.32-.05-.85-.15c-.16-.03-.34-.07-.54-.11-.11-.03-.23-.05-.35-.08-1.29-.3-3.07-.82-4.52-1.62-.85-.46-1.58-1.03-2.03-1.7-.03-.04-.06-.09-.09-.14 0 0-.01.07-.01.19-.04.52-.08 2.05.5 3.74.08.22.16.45.27.68.61 1.41 1.7 2.84 3.61 3.83.94.47 2.06.85 3.44 1.05h.01c.28.05.56.08.86.11.3.03.61.05.93.06 0 0-2.24 3.11-5.3 3.72-.23.05-.47.08-.71.1 0 0 .01 0 .02.01.07.06.38.29.88.58 1.2.71 3.48 1.72 6 1.23.01-.01.02-.01.02-.01 1.54-.31 3.16-1.18 4.7-3.01"/>
    <path fill="none" stroke="inherit" stroke-linecap="round" stroke-linejoin="round" stroke-miterlimit="10" stroke-width=".4" d="M8.48 15.361s1.098 4.76 8.185 5.077M18.03 16.605c-4.43-2.94-2.77-8.54-2.68-8.86l.01-.01M20.13 26.715c-2.36 2.68-5.77 2.52-7.28 2.28-.4-.06-.67-.12-.75-.14-.01-.01-.02-.01-.02-.01M27.459 20.617c0 2.077-1.684 3.525-3.761 3.525s-3.761-1.448-3.761-3.525 1.684-3.505 3.76-3.505 3.762 1.428 3.762 3.505z"/>
    <path fill="none" stroke="inherit" stroke-linecap="round" stroke-linejoin="round" stroke-miterlimit="10" stroke-width=".4" d="M19.956 20.308c0 1.419 7.503 1.419 7.503 0M24.44 17.185c.06.08.09.18.09.28 0 .35-.37.62-.82.62-.46 0-.83-.27-.83-.62 0-.11.04-.21.1-.29M23.711 18.085v3.235"/>
    <ellipse cx="19.308" cy="17.583" fill="none" stroke="inherit" stroke-linecap="round" stroke-linejoin="round" stroke-miterlimit="10" stroke-width=".4" rx="1.665" ry=".979" transform="rotate(-49.877 19.308 17.583)"/>
    <ellipse cx="19.308" cy="17.583" fill="inherit" rx="1.103" ry=".649" transform="rotate(-49.877 19.308 17.583)"/>
    <ellipse cx="28.64" cy="18.004" fill="none" stroke="inherit" stroke-linecap="round" stroke-linejoin="round" stroke-miterlimit="10" stroke-width=".4" rx=".979" ry="1.665" transform="rotate(-40.123 28.64 18.004)"/>
    <ellipse cx="28.64" cy="18.004" fill="inherit" rx=".649" ry="1.103" transform="rotate(-40.123 28.64 18.004)"/>
    <path fill="none" stroke="inherit" stroke-linecap="round" stroke-linejoin="round" stroke-miterlimit="10" stroke-width=".4" d="M12.956 19.808c-.006.958.227 3.16 2.016 4.783M17.419 28.722c.2.428.392.861.572 1.299M18.152 28.421l.363 1.026"/>
    <g fill="none" stroke="inherit" stroke-linecap="round" stroke-linejoin="round" stroke-miterlimit="10" stroke-width=".4">
      <path d="M20.24 14.855c-.04-1.64.38-3.21.94-4.57 1.03-2.49 2.53-4.24 2.53-4.24s1.65 1.78 2.76 4.33h.01c.58 1.32 1.01 2.86.99 4.45M31.92 18.935c1.66-1.4 2.54-2.79 2.93-4.09.16-.56.24-1.11.24-1.63.02-3.08-2.39-5.36-2.59-5.55l-.01-.01c-.17 1.92-.64 3.35-1.21 4.41-.2.37-.41.69-.64.98-.59.79-1.23 1.27-1.76 1.56-.63.36-1.09.44-1.09.44"/>
      <path d="M31.04 19.095s.24-.04.64-.11c.07-.02.15-.03.24-.05 1.14-.23 3.2-.71 4.97-1.54 1.06-.49 2.02-1.1 2.61-1.86.09-.1.17-.22.24-.33 0 0 .02.16.03.44.03.71 0 2.19-.6 3.76-.18.46-.41.93-.7 1.39-.8 1.29-2.08 2.5-4.11 3.29h-.01c-.77.3-1.66.54-2.67.69-.29.05-.58.09-.89.11h-.01c-.31.04-.64.06-.97.08 0 0 1.89 2.47 4.58 3.41.54.19 1.12.32 1.72.35 0 0-.84.67-2.19 1.23-1.61.68-3.93 1.21-6.36.27l-.01-.01c-1.18-.46-2.39-1.26-3.56-2.57"/>
      <path d="M31.25 20.365c.51-.03.99-.07 1.44-.14 1.92-.28 3.33-.88 4.36-1.58.14-.09.27-.18.39-.27 1.36-1.04 1.95-2.22 2.18-2.8.09-.23.12-.37.12-.37M29.79 16.545c4.58-2.98 2.81-8.56 2.71-8.88l-.01-.01M36.113 28.727s-5.092 1.495-8.37-2.006M31.67 24.785s0-.01.01-.01c.49-.65.82-1.4 1.06-2.17.17-.56.28-1.13.39-1.71.04-.22.07-.45.11-.67M29.781 28.363l-.368 1.029M28.638 27.57l-.99 1.764"/>
    </g>
    <path fill="none" stroke="inherit" stroke-linecap="round" stroke-linejoin="round" stroke-miterlimit="10" stroke-width=".4" d="m23.711 6.045-.01 8.05M19 30.655s-.01 0-.02.01c-.19.17-1.77 1.76-3.2 3.08-1.01.93-1.95 1.72-2.24 1.76-.53.07-1.9-.46-2.8-.29-.32.05-.58.2-.73.49-.56 1.11-.76 2.28.78 2.76 1.53.48 1.57 1 1.57 1s-.26 2.98 1.83 2.42c1.43-.38 1.53-1.27 1.44-2.25-.04-.46-.12-.94-.13-1.39 0-.54 1.08-1.72 2.45-3 2.36-2.22 5.57-4.74 5.57-4.74"/>
    <path fill="none" stroke="inherit" stroke-linecap="round" stroke-linejoin="round" stroke-miterlimit="10" stroke-width=".4" d="m27.55 30.215.01.01c.18.19 2.02 2.18 3.52 3.62.86.83 1.61 1.48 1.86 1.52.67.1 2.73-.72 3.4.11.05.05.09.11.12.18.53 1.12.71 2.29-.84 2.74-1.55.44-1.6.96-1.6.96s.18 2.98-1.89 2.37c-1.1-.32-1.39-.92-1.42-1.64-.02-.63.17-1.35.2-2.03.02-.5-.87-1.57-2.03-2.74-2.19-2.21-5.36-4.81-5.36-4.81M8.97 19.295s-1.7.06-2.19-1.66c-.33-1.17.72-1.72 1.69-2.08.01-.01.03-.02.05-.03.01 0 .03-.01.05-.02.43-.15.83-.27 1.07-.39.8-.4.07-1.5 1.26-2.35 1.18-.86 2.01.45 2.01.45M13.19 15.04s-.302.93-.404 1.177c-.1.246 2.336 2.606 2.336 2.606M35.09 13.215s.83-1.31 2.02-.45c1.18.85.45 1.95 1.25 2.35.26.13.69.25 1.14.42.04.02.08.03.12.04.05.03.1.05.15.07.89.36 1.75.91 1.45 1.98-.48 1.73-2.05 1.78-2.05 1.78M34.85 14.84s.331 1.085.425 1.334c.095.249-2.41 2.537-2.41 2.537"/>
    <path fill="none" stroke="inherit" stroke-linecap="round" stroke-linejoin="round" stroke-miterlimit="10" stroke-width=".4" d="M38.47 20.795c.57 1.72.88 3.59.88 5.59 0 3.58-1.16 6.65-3.01 9.09M15.63 39.635c2.39 1.38 5.17 2.14 8.07 2.14 2.36 0 4.79-.59 7.01-1.69M9.24 19.975c-.76 1.99-1.18 4.22-1.18 6.6 0 3.31 1 6.25 2.68 8.64M26.47 10.375h.01c1.72.31 3.34.88 4.8 1.69M21.18 10.285c-1.71.25-3.32.77-4.78 1.52M30.5 17.925s-.01 0-.01-.01M19.87 16.165c-.01 0-.01 0-.02.01-.23.06-.42.14-.64.22h-.01c-.01 0-.01.01-.02.01M15.66 18.705c-.06.06-.13.13-.19.2M33.92 29.955c-.61 1.55-1.61 2.86-2.84 3.89M34.39 28.375c.13-.62.2-1.28.2-1.96 0-.81-.08-1.59-.23-2.33h-.01M17.95 35.245c1.67.88 3.6 1.37 5.61 1.37 1.8 0 3.66-.46 5.32-1.3M12.79 28.745c-.16-.7-.25-1.44-.25-2.2 0-.96.11-1.87.31-2.74M15.78 33.745c-1.29-1.16-2.28-2.62-2.8-4.31-.05-.14-.09-.29-.13-.44M28.31 16.625c.16.08.32.15.48.23.03.02.06.03.09.05"/>
    <circle cx="23.416" cy="39.11" r="1.184" fill="none" stroke="inherit" stroke-linecap="round" stroke-linejoin="round" stroke-miterlimit="10" stroke-width=".4"/>
    <circle cx="17.705" cy="37.926" r="1.184" fill="none" stroke="inherit" stroke-linecap="round" stroke-linejoin="round" stroke-miterlimit="10" stroke-width=".4"/>
    <circle cx="12.306" cy="33.351" r="1.184" fill="none" stroke="inherit" stroke-linecap="round" stroke-linejoin="round" stroke-miterlimit="10" stroke-width=".4"/>
    <circle cx="10.452" cy="27.094" r="1.184" fill="none" stroke="inherit" stroke-linecap="round" stroke-linejoin="round" stroke-miterlimit="10" stroke-width=".4"/>
    <circle cx="28.881" cy="37.926" r="1.184" fill="none" stroke="inherit" stroke-linecap="round" stroke-linejoin="round" stroke-miterlimit="10" stroke-width=".4"/>
    <circle cx="34.71" cy="33.294" r="1.184" fill="none" stroke="inherit" stroke-linecap="round" stroke-linejoin="round" stroke-miterlimit="10" stroke-width=".4"/>
    <circle cx="36.841" cy="26.715" r="1.184" fill="none" stroke="inherit" stroke-linecap="round" stroke-linejoin="round" stroke-miterlimit="10" stroke-width=".4"/>
    <path fill="none" stroke="inherit" stroke-linecap="round" stroke-linejoin="round" stroke-miterlimit="10" stroke-width=".4" d="M28.88 14.605c-.17-.2-.27-.46-.27-.75 0-.65.53-1.18 1.18-1.18.34 0 .64.14.85.37M18.83 14.635a1.182 1.182 0 0 0-1.72-1.62M21.373 12.526l.977-.913M21.832 13.278l.55-.59M36.394 20.34a4.813 4.813 0 0 1-.493 1.166M35.097 21.15a1.527 1.527 0 0 1-.292.589M14.896 36.82a21.443 21.443 0 0 1 2.624-2.518M13.854 37.652c.089-.152.208-.286.349-.392"/>
  </svg>
